<?xml version="1.0" standalone="no"?>
<!DOCTYPE svg PUBLIC "-//W3C//DTD SVG 20010904//EN"
 "http://www.w3.org/TR/2001/REC-SVG-20010904/DTD/svg10.dtd">
<svg version="1.0" xmlns="http://www.w3.org/2000/svg"
 width="260.000000pt" height="260.000000pt" viewBox="0 0 260.000000 260.000000"
 preserveAspectRatio="xMidYMid meet">
<metadata>
Created by potrace 1.14, written by Peter Selinger 2001-2017
</metadata>
<g transform="translate(0.000000,260.000000) scale(0.100000,-0.100000)"
fill="#000000" stroke="none">
<path d="M940 2576 c-188 -30 -331 -85 -462 -177 -14 -11 -60 -38 -101 -62
-162 -92 -285 -286 -338 -532 -14 -65 -17 -227 -25 -1202 l-5 -603 48 0 48 0
0 102 c0 121 16 174 118 388 35 74 72 158 83 185 10 28 21 52 25 55 4 3 12 32
19 65 8 33 15 62 16 64 2 2 27 -18 56 -43 58 -51 185 -118 261 -137 42 -10 47
-14 47 -39 0 -22 -27 -54 -142 -167 -153 -150 -241 -246 -246 -267 -2 -7 8
-26 21 -42 21 -26 23 -36 19 -96 l-4 -68 603 0 604 1 39 22 c22 13 44 30 49
38 14 22 1 66 -26 93 -25 25 -115 148 -133 181 -6 11 -16 29 -23 40 -11 18 -7
39 27 150 39 126 63 211 76 267 5 20 17 32 43 43 44 19 54 11 72 -54 26 -91
120 -204 241 -289 146 -103 179 -134 216 -200 27 -48 38 -80 41 -126 5 -57 3
-64 -31 -114 l-36 -52 42 0 c47 1 93 34 121 87 l15 28 7 -27 c10 -39 1 -57
-37 -73 -30 -13 -18 -14 137 -12 l170 2 3 276 2 276 -39 26 c-21 14 -103 58
-182 97 -129 64 -199 110 -199 131 0 4 9 9 19 12 15 4 20 15 23 48 l3 44 55
13 c126 30 130 32 136 58 7 26 -15 120 -69 301 -30 101 -30 103 -12 124 11 11
53 38 95 60 41 22 96 55 123 74 l47 35 0 61 c0 56 -3 65 -44 117 -24 32 -75
102 -113 157 -89 127 -136 183 -178 215 -121 91 -161 123 -170 133 -17 20 -88
73 -122 90 -19 10 -55 17 -88 17 -48 0 -63 5 -113 39 -81 55 -108 67 -233 106
-209 66 -426 88 -599 61z m250 -1896 c0 -5 -2 -10 -4 -10 -3 0 -8 5 -11 10 -3
6 -1 10 4 10 6 0 11 -4 11 -10z m-193 -16 c-3 -3 -12 -4 -19 -1 -8 3 -5 6 6 6
11 1 17 -2 13 -5z"/>
</g>
</svg>
